<svg xmlns="http://www.w3.org/2000/svg" viewBox="0 0 512 512">
  <defs>
    <linearGradient id="bg" x1="0" y1="0" x2="1" y2="1">
      <stop offset="0" stop-color="#b45309"/>
      <stop offset="1" stop-color="#7c2d12"/>
    </linearGradient>
    <linearGradient id="pg" x1="0" y1="0" x2="0" y2="1">
      <stop offset="0" stop-color="#fffbeb"/>
      <stop offset="1" stop-color="#fde68a"/>
    </linearGradient>
  </defs>
  <rect width="512" height="512" rx="104" fill="url(#bg)"/>
  <!-- Open book -->
  <path d="M256 150 C 210 122 150 118 110 132 V 372 C 150 358 210 362 256 390 Z" fill="url(#pg)" stroke="#7c2d12" stroke-width="8" stroke-linejoin="round"/>
  <path d="M256 150 C 302 122 362 118 402 132 V 372 C 362 358 302 362 256 390 Z" fill="url(#pg)" stroke="#7c2d12" stroke-width="8" stroke-linejoin="round"/>
  <line x1="256" y1="150" x2="256" y2="390" stroke="#7c2d12" stroke-width="10" stroke-linecap="round"/>
  <g stroke="#d97706" stroke-width="7" stroke-linecap="round" opacity="0.7">
    <line x1="146" y1="180" x2="226" y2="196"/>
    <line x1="146" y1="218" x2="226" y2="234"/>
    <line x1="146" y1="256" x2="226" y2="272"/>
    <line x1="286" y1="196" x2="366" y2="180"/>
    <line x1="286" y1="234" x2="366" y2="218"/>
    <line x1="286" y1="272" x2="366" y2="256"/>
  </g>
</svg>
