<svg xmlns="http://www.w3.org/2000/svg" viewBox="0 0 512 512">
  <defs>
    <linearGradient id="bg" x1="0" y1="0" x2="1" y2="1">
      <stop offset="0" stop-color="#38bdf8"/>
      <stop offset="1" stop-color="#0369a1"/>
    </linearGradient>
  </defs>
  <rect width="512" height="512" rx="104" fill="url(#bg)"/>
  <!-- straw -->
  <line x1="298" y1="118" x2="262" y2="212" stroke="#fde68a" stroke-width="20" stroke-linecap="round"/>
  <!-- lid -->
  <rect x="156" y="182" width="200" height="34" rx="14" fill="#ffffff"/>
  <!-- cup -->
  <path d="M168 216 L344 216 L322 392 Q320 408 304 408 L208 408 Q192 408 190 392 Z" fill="#ffffff"/>
  <!-- cold/frost lines on cup -->
  <g stroke="#7dd3fc" stroke-width="12" stroke-linecap="round">
    <line x1="214" y1="262" x2="214" y2="356"/>
    <line x1="256" y1="262" x2="256" y2="362"/>
    <line x1="298" y1="262" x2="298" y2="356"/>
  </g>
  <!-- snowflake -->
  <g stroke="#ffffff" stroke-width="10" stroke-linecap="round">
    <line x1="392" y1="118" x2="392" y2="172"/>
    <line x1="366" y1="145" x2="418" y2="145"/>
    <line x1="374" y1="127" x2="410" y2="163"/>
    <line x1="410" y1="127" x2="374" y2="163"/>
  </g>
</svg>
